<?xml version="1.0" encoding="utf-8"?>
<!-- Generator: Adobe Illustrator 19.0.0, SVG Export Plug-In . SVG Version: 6.00 Build 0)  -->
<svg version="1.1" id="Layer_1" xmlns="http://www.w3.org/2000/svg" xmlns:xlink="http://www.w3.org/1999/xlink" x="0px" y="0px"
	 viewBox="-185 75 403.7 274.2" style="enable-background:new -185 75 403.7 274.2;" xml:space="preserve">
<style type="text/css">
	.st0{fill:#FFFFFF;}
	.st1{opacity:0.2;fill:#5867DD;enable-background:new    ;}
	.st2{fill:#34BFA2;}
	.st3{opacity:8.000000e-002;fill:#5867DD;enable-background:new    ;}
	.st4{opacity:8.000000e-002;enable-background:new    ;}
	.st5{fill:#5867DD;}
	.st6{fill:#BAC1EF;}
	.st7{fill:#FFD05B;}
	.st8{fill:#F1543F;}
	.st9{fill:#FF7058;}
	.st10{fill:#F9B54C;}
	.st11{fill:#324A5E;}
	.st12{opacity:0.1;}
</style>
<g id="XMLID_48_">
	<path id="XMLID_55_" class="st0" d="M212.7,348.9h-392c-2.2,0-4-1.8-4-4v-242c0-2.2,1.8-4,4-4h392c2.2,0,4,1.8,4,4v242
		C216.7,347.1,214.9,348.9,212.7,348.9z"/>
</g>
<path id="XMLID_50_" class="st1" d="M-34.2,169v108.7c0,0.4-0.3,0.9-0.5,1.3c-0.4,0.5-1.1,1.1-1.8,1.1h-108.7
	c-0.6,0-1.1-0.4-1.4-0.8c-0.4-0.4-0.6-1-0.6-1.6V169c0-1.1,0.9-2,2-2h108.7C-35.5,167-34.2,167.9-34.2,169z"/>
<path id="XMLID_13_" class="st2" d="M177.1,321h-322.3c-1.1,0-2-0.9-2-2v-27c0-1.1,0.9-2,2-2h322.3c1.1,0,2,0.9,2,2v27
	C179.1,320.1,178.2,321,177.1,321z"/>
<path id="XMLID_10_" class="st3" d="M177.1,197.9H-15.2c-1.1,0-2-0.9-2-2V169c0-1.1,0.9-2,2-2h192.3c1.1,0,2,0.9,2,2v26.9
	C179.1,197,178.2,197.9,177.1,197.9z"/>
<path id="XMLID_11_" class="st3" d="M177.1,236.6H-15.2c-1.1,0-2-0.9-2-2v-26.9c0-1.1,0.9-2,2-2h192.3c1.1,0,2,0.9,2,2v26.9
	C179.1,235.9,178.2,236.6,177.1,236.6z"/>
<path id="XMLID_12_" class="st3" d="M177.1,275.6H-15.2c-1.1,0-2-0.9-2-2v-26.9c0-1.1,0.9-2,2-2h192.3c1.1,0,2,0.9,2,2v26.9
	C179.1,274.6,178.2,275.6,177.1,275.6z"/>
<g id="XMLID_22_" class="st4">
	<path id="XMLID_34_" class="st5" d="M216.7,140.3h-400v-37.4c0-2.2,1.8-4,4-4h392c2.2,0,4,1.8,4,4V140.3z"/>
</g>
<g id="XMLID_33_">
	<path id="XMLID_43_" class="st5" d="M36.7,122.8h-40c-2.2,0-4-1.8-4-4v-40c0-2.2,1.8-4,4-4h40c2.2,0,4,1.8,4,4v40
		C40.7,121,38.9,122.8,36.7,122.8z"/>
</g>
<g id="XMLID_90_">
	<path id="XMLID_91_" class="st0" d="M15.8,112c-0.2-0.2-0.3-0.4-0.3-0.6V92.9l-5.4,4.2c-0.1,0.1-0.3,0.2-0.5,0.2
		c-0.3,0-0.5-0.1-0.7-0.4l-1.5-2c-0.1-0.2-0.2-0.3-0.2-0.5c0-0.3,0.1-0.5,0.4-0.7l8.1-6.3c0.3-0.2,0.6-0.3,0.9-0.3h3.2
		c0.2,0,0.4,0.1,0.6,0.3s0.3,0.4,0.3,0.6v23.5c0,0.2-0.1,0.4-0.3,0.6c-0.2,0.2-0.4,0.3-0.6,0.3h-3.3C16.2,112.2,16,112.1,15.8,112z"
		/>
</g>
<g id="XMLID_2_">
	<path id="XMLID_64_" class="st6" d="M-43.8,279c-0.3,0.5-0.8,0.9-1.4,0.9h-91.3c-0.5,0-0.9-0.4-1.2-0.7c4.3-13.5,15.8-24.3,30.5-29
		c1.1-0.4,2.3-0.7,3.5-1l0,0c2.9-0.7,6-1.2,9.1-1.4c1.3-0.1,2.5-0.1,3.8-0.1c1.2,0,2.4,0,3.5,0.1c3.1,0.2,6.2,0.7,9.1,1.4l0,0
		c1.2,0.3,2.3,0.6,3.4,0.9C-59.8,254.8-48.2,265.6-43.8,279z"/>
	<path id="XMLID_24_" class="st7" d="M-77.5,246.9L-77.5,246.9c0,1.1-0.7,7-13.1,11.7h-0.7c-12.4-4.8-13.1-10.6-13.1-11.7l0,0
		c0.1-2.2,0.6-4.4,1.5-6.5c3.4,3.8,7.5,6.4,11.9,6.4c4.3,0,8.5-2.5,11.9-6.4C-78.1,242.4-77.5,244.6-77.5,246.9z"/>
	<path id="XMLID_23_" class="st8" d="M-83.5,260.6l-2.7,5.4h-9.4l-2.7-5.4c3.7-1.6,7.4-1.9,7.4-1.9S-87.2,258.9-83.5,260.6z"/>
	<polygon id="XMLID_46_" class="st9" points="-84.3,280 -97.3,280 -95.5,266 -86.1,266 	"/>
	<g id="XMLID_45_">
		<path id="XMLID_20_" class="st0" d="M-77.5,246.6c0,0,0.6,6.8-13.4,12c0,0,11,0.6,14.3,8.2C-76.5,267.1-70.2,250.6-77.5,246.6z"/>
		<path id="XMLID_17_" class="st0" d="M-104.3,246.6c-7.2,4-0.9,20.4-0.8,20.1c3.2-7.5,14.3-8.2,14.3-8.2
			C-104.9,253.5-104.3,246.6-104.3,246.6z"/>
	</g>
	<path id="XMLID_16_" class="st10" d="M-78.3,242.1c-3.6,3.8-7.8,6.3-12.6,6.3c-4.8,0-9-2.5-12.6-6.3c0.2-0.6,0.4-1.2,0.7-1.7
		c3.4,3.8,7.5,6.4,11.9,6.4c4.4,0,8.5-2.5,11.9-6.4C-78.7,240.9-78.5,241.5-78.3,242.1z"/>
	<path id="XMLID_15_" class="st7" d="M-67.7,229.1c-1.8,3-4.5,4.8-6.5,4.4c-4.1,7.6-10,13.2-16.7,13.2c-6.7,0-12.6-5.7-16.7-13.2
		c-2,0.3-4.8-1.4-6.5-4.4c-2.1-3.5-2.2-7.3-0.2-8.6c0.5-0.3,1-0.4,1.6-0.3c1.4,3.5,3.2,5.6,3.2,5.6c-2-10.8,6-12,4.7-22.4
		c0,0,5,11.1,19.4,3.3l-1.1,2.1c20.1-4.5,13.3,19.1,13.2,19.7c2.3-2.9,3.7-5.8,4.6-8.4c0.3,0,0.8,0.2,1,0.3
		C-65.5,221.6-65.6,225.6-67.7,229.1z"/>
	<path id="XMLID_14_" class="st11" d="M-79.3,192.1c1.6-0.2,4.3,1.3,4.3,1.3c-7.2-8.2-19-3-19-3c4-3.4,7.6-3.1,7.6-3.1
		c-16.9-2.6-19.8,7.6-19.8,7.6c-0.8-1.2-0.8-2.9-0.7-3.7c-1.2,2,0.1,6.1,0.1,6.1c-1.2-3-5.4-2.5-5.4-2.5c3.6,0.6,4.2,2.8,4.2,2.8
		c-8.9,3.3-7.4,12.6-7.4,12.6l2.1-2.6c-2.6,10.1,4.1,17.9,4.1,17.9c-2-10.8,6-12,4.7-22.4c0,0,5,11.1,19.4,3.3l-1.1,2.1
		c20.3-4.6,13.2,19.8,13.2,19.8c7.2-9.2,6.1-18.6,6.1-18.6l0.9,3.4C-63.9,198.1-79.3,192.1-79.3,192.1z"/>
</g>
<g id="XMLID_1_" class="st12">
	<g id="XMLID_3_">
		<path class="st5" d="M212.8,349.4h-392c-2.5,0-4.5-2-4.5-4.5v-242c0-2.5,2-4.5,4.5-4.5h392c2.5,0,4.5,2,4.5,4.5v242
			C217.3,347.4,215.2,349.4,212.8,349.4z M-179.3,99.3c-1.9,0-3.5,1.6-3.5,3.5v242c0,1.9,1.6,3.5,3.5,3.5h392c1.9,0,3.5-1.6,3.5-3.5
			v-242c0-1.9-1.6-3.5-3.5-3.5H-179.3z"/>
	</g>
</g>
</svg>
