<?xml version="1.0" encoding="utf-8"?>
<!-- Generator: Adobe Illustrator 19.0.0, SVG Export Plug-In . SVG Version: 6.00 Build 0)  -->
<svg version="1.1" id="Layer_1" xmlns="http://www.w3.org/2000/svg" xmlns:xlink="http://www.w3.org/1999/xlink" x="0px" y="0px"
	 viewBox="-185 75 403.7 274.2" style="enable-background:new -185 75 403.7 274.2;" xml:space="preserve">
<style type="text/css">
	.st0{fill:#FFFFFF;}
	.st1{opacity:0.2;fill:#5867DD;enable-background:new    ;}
	.st2{fill:#34BFA2;}
	.st3{opacity:8.000000e-002;fill:#5867DD;enable-background:new    ;}
	.st4{opacity:8.000000e-002;enable-background:new    ;}
	.st5{fill:#5867DD;}
	.st6{opacity:0.1;}
</style>
<g id="XMLID_48_">
	<path id="XMLID_55_" class="st0" d="M212.7,348.7h-392c-2.2,0-4-1.8-4-4v-242c0-2.2,1.8-4,4-4h392c2.2,0,4,1.8,4,4v242
		C216.7,346.9,214.9,348.7,212.7,348.7z"/>
</g>
<path id="XMLID_50_" class="st1" d="M-34.2,168.8v108.7c0,0.4-0.3,0.9-0.5,1.3c-0.4,0.5-1.1,1.1-1.8,1.1h-108.7
	c-0.6,0-1.1-0.4-1.4-0.8c-0.4-0.4-0.6-1-0.6-1.6V168.8c0-1.1,0.9-2,2-2h108.7C-35.5,166.8-34.2,167.7-34.2,168.8z"/>
<path id="XMLID_13_" class="st2" d="M177.1,320.8h-322.3c-1.1,0-2-0.9-2-2v-27c0-1.1,0.9-2,2-2h322.3c1.1,0,2,0.9,2,2v27
	C179.1,319.9,178.2,320.8,177.1,320.8z"/>
<path id="XMLID_10_" class="st3" d="M177.1,197.7H-15.2c-1.1,0-2-0.9-2-2v-26.9c0-1.1,0.9-2,2-2h192.3c1.1,0,2,0.9,2,2v26.9
	C179.1,196.8,178.2,197.7,177.1,197.7z"/>
<path id="XMLID_11_" class="st3" d="M177.1,236.5H-15.2c-1.1,0-2-0.9-2-2v-26.9c0-1.1,0.9-2,2-2h192.3c1.1,0,2,0.9,2,2v26.9
	C179.1,235.7,178.2,236.5,177.1,236.5z"/>
<path id="XMLID_12_" class="st3" d="M177.1,275.4H-15.2c-1.1,0-2-0.9-2-2v-26.9c0-1.1,0.9-2,2-2h192.3c1.1,0,2,0.9,2,2v26.9
	C179.1,274.5,178.2,275.4,177.1,275.4z"/>
<g id="XMLID_22_" class="st4">
	<path id="XMLID_34_" class="st5" d="M216.7,140.1h-400v-37.4c0-2.2,1.8-4,4-4h392c2.2,0,4,1.8,4,4V140.1z"/>
</g>
<g id="XMLID_33_">
	<path id="XMLID_43_" class="st5" d="M37,123H-3c-2.2,0-4-1.8-4-4V79c0-2.2,1.8-4,4-4h40c2.2,0,4,1.8,4,4v40
		C41,121.2,39.2,123,37,123z"/>
</g>
<g id="XMLID_1_" class="st6">
	<g id="XMLID_3_">
		<path class="st5" d="M212.8,349.2h-392c-2.5,0-4.5-2-4.5-4.5v-242c0-2.5,2-4.5,4.5-4.5h392c2.5,0,4.5,2,4.5,4.5v242
			C217.3,347.2,215.2,349.2,212.8,349.2z M-179.3,99.2c-1.9,0-3.5,1.6-3.5,3.5v242c0,1.9,1.6,3.5,3.5,3.5h392c1.9,0,3.5-1.6,3.5-3.5
			v-242c0-1.9-1.6-3.5-3.5-3.5H-179.3z"/>
	</g>
</g>
<g>
	<path class="st5" d="M-69.4,216c-0.2-11.2-9.3-20.3-20.5-20.3c-5,0-9.8,1.8-13.6,5.1c-3.3,2.9-5.6,6.9-6.5,11.2c-0.1,0-0.1,0-0.2,0
		c-9.6,0-17.4,7.8-17.4,17.4s7.8,17.4,17.4,17.4H-98c0.9,0,1.6-0.7,1.6-1.6s-0.7-1.6-1.6-1.6h-12.2c-7.9,0-14.3-6.4-14.3-14.3
		s6.4-14.3,14.3-14.3c0.4,0,0.9,0,1.4,0.1c0.8,0.1,1.6-0.5,1.7-1.3c0.6-4.1,2.6-7.9,5.7-10.7c3.2-2.8,7.3-4.3,11.5-4.3
		c9.6,0,17.4,7.8,17.4,17.4c0,0.3,0,0.7-0.1,1.1v0.2c0,0.5,0.1,0.9,0.5,1.2c0.3,0.3,0.8,0.5,1.2,0.4c0.4,0,0.8-0.1,1.2-0.1
		c6.8,0,12.3,5.5,12.3,12.3s-5.5,12.3-12.3,12.3h-12.7c-0.9,0-1.6,0.7-1.6,1.6s0.7,1.6,1.6,1.6h12.8c8.5,0,15.4-6.9,15.4-15.4
		C-54.2,223-61,216.1-69.4,216z"/>
	<path class="st5" d="M-89.9,206.2c0.9,0,1.6-0.7,1.6-1.6s-0.7-1.6-1.6-1.6c-6.6,0-12.2,4.9-13,11.4c-0.1,0.9,0.5,1.6,1.3,1.8
		c0.1,0,0.1,0,0.2,0c0.8,0,1.4-0.6,1.6-1.4C-99.2,209.9-94.9,206.2-89.9,206.2z"/>
	<path class="st5" d="M-83.9,236.6c0.4,0,0.9-0.2,1.2-0.5c0.6-0.6,0.5-1.6-0.1-2.2l-5.7-5.1c-1-0.9-2.5-0.9-3.4,0l-5.7,5.1
		c-0.6,0.6-0.7,1.6-0.1,2.2s1.6,0.7,2.2,0.1l3.8-3.4v19.3c0,0.9,0.7,1.6,1.6,1.6s1.6-0.7,1.6-1.6v-19.3l3.6,3.4
		C-84.6,236.5-84.2,236.6-83.9,236.6z"/>
</g>
<g>
	<path class="st0" d="M7.7,111.6c-0.2-0.2-0.3-0.4-0.3-0.6v-1.9c0-0.7,0.3-1.2,0.9-1.7l5.6-5.6c1.7-1.3,3-2.4,3.9-3.3
		s1.6-1.6,2.1-2.4c0.5-0.7,0.7-1.4,0.7-2.1c0-1.1-0.3-2-0.9-2.7c-0.6-0.6-1.5-1-2.7-1s-2.1,0.4-2.8,1.1c-0.7,0.7-1.1,1.6-1.3,2.8
		c-0.1,0.3-0.2,0.5-0.4,0.6c-0.2,0.1-0.4,0.2-0.7,0.2H8.6c-0.2,0-0.4-0.1-0.5-0.2c-0.1-0.1-0.2-0.3-0.2-0.5c0-1.4,0.4-2.7,1.2-4
		c0.7-1.2,1.8-2.2,3.2-3s3-1.1,4.8-1.1c1.9,0,3.6,0.3,4.9,1s2.4,1.6,3,2.7c0.7,1.2,1,2.5,1,3.9c0,1.6-0.5,3.1-1.3,4.4
		c-0.9,1.3-2.3,2.7-4.2,4.2l-5,5.1h10.2c0.3,0,0.5,0.1,0.6,0.3c0.2,0.2,0.3,0.4,0.3,0.6v2.6c0,0.3-0.1,0.5-0.3,0.6
		c-0.2,0.2-0.4,0.2-0.6,0.2H8.5C8.1,111.9,7.9,111.8,7.7,111.6z"/>
</g>
</svg>
