<?xml version="1.0" encoding="utf-8"?>
<!-- Generator: Adobe Illustrator 19.0.0, SVG Export Plug-In . SVG Version: 6.00 Build 0)  -->
<svg version="1.1" id="Layer_1" xmlns="http://www.w3.org/2000/svg" xmlns:xlink="http://www.w3.org/1999/xlink" x="0px" y="0px"
	 viewBox="-185 75 403.7 274.2" style="enable-background:new -185 75 403.7 274.2;" xml:space="preserve">
<style type="text/css">
	.st0{fill:#FFFFFF;}
	.st1{opacity:0.2;fill:#5867DD;enable-background:new    ;}
	.st2{fill:#34BFA2;}
	.st3{opacity:8.000000e-002;fill:#5867DD;enable-background:new    ;}
	.st4{opacity:8.000000e-002;enable-background:new    ;}
	.st5{fill:#5867DD;}
	.st6{opacity:0.1;}
</style>
<g id="XMLID_48_">
	<path id="XMLID_55_" class="st0" d="M212.7,348.7h-392c-2.2,0-4-1.8-4-4v-242c0-2.2,1.8-4,4-4h392c2.2,0,4,1.8,4,4v242
		C216.7,346.9,214.9,348.7,212.7,348.7z"/>
</g>
<path id="XMLID_50_" class="st1" d="M-34.2,168.8v108.7c0,0.4-0.3,0.9-0.5,1.3c-0.4,0.5-1.1,1.1-1.8,1.1h-108.7
	c-0.6,0-1.1-0.4-1.4-0.8c-0.4-0.4-0.6-1-0.6-1.6V168.8c0-1.1,0.9-2,2-2h108.7C-35.5,166.8-34.2,167.7-34.2,168.8z"/>
<path id="XMLID_13_" class="st2" d="M177.1,320.8h-322.3c-1.1,0-2-0.9-2-2v-27c0-1.1,0.9-2,2-2h322.3c1.1,0,2,0.9,2,2v27
	C179.1,319.9,178.2,320.8,177.1,320.8z"/>
<path id="XMLID_10_" class="st3" d="M177.1,197.7H-15.2c-1.1,0-2-0.9-2-2v-26.9c0-1.1,0.9-2,2-2h192.3c1.1,0,2,0.9,2,2v26.9
	C179.1,196.8,178.2,197.7,177.1,197.7z"/>
<path id="XMLID_11_" class="st3" d="M177.1,236.5H-15.2c-1.1,0-2-0.9-2-2v-26.9c0-1.1,0.9-2,2-2h192.3c1.1,0,2,0.9,2,2v26.9
	C179.1,235.7,178.2,236.5,177.1,236.5z"/>
<path id="XMLID_12_" class="st3" d="M177.1,275.4H-15.2c-1.1,0-2-0.9-2-2v-26.9c0-1.1,0.9-2,2-2h192.3c1.1,0,2,0.9,2,2v26.9
	C179.1,274.5,178.2,275.4,177.1,275.4z"/>
<g id="XMLID_22_" class="st4">
	<path id="XMLID_34_" class="st5" d="M216.7,140.1h-400v-37.4c0-2.2,1.8-4,4-4h392c2.2,0,4,1.8,4,4V140.1z"/>
</g>
<g id="XMLID_33_">
	<path id="XMLID_43_" class="st5" d="M37,123H-3c-2.2,0-4-1.8-4-4V79c0-2.2,1.8-4,4-4h40c2.2,0,4,1.8,4,4v40
		C41,121.2,39.2,123,37,123z"/>
</g>
<g id="XMLID_1_" class="st6">
	<g id="XMLID_3_">
		<path class="st5" d="M212.8,349.2h-392c-2.5,0-4.5-2-4.5-4.5v-242c0-2.5,2-4.5,4.5-4.5h392c2.5,0,4.5,2,4.5,4.5v242
			C217.3,347.2,215.2,349.2,212.8,349.2z M-179.3,99.2c-1.9,0-3.5,1.6-3.5,3.5v242c0,1.9,1.6,3.5,3.5,3.5h392c1.9,0,3.5-1.6,3.5-3.5
			v-242c0-1.9-1.6-3.5-3.5-3.5H-179.3z"/>
	</g>
</g>
<g>
	<path class="st0" d="M11.3,110.9c-1.5-0.7-2.6-1.5-3.3-2.5c-0.7-1-1.1-2.1-1.2-3.1c0-0.2,0.1-0.4,0.2-0.5s0.3-0.2,0.5-0.2h3.3
		c0.5,0,0.9,0.2,1.1,0.7c0.5,1.7,2.1,2.6,4.8,2.6c1.5,0,2.6-0.3,3.4-1s1.2-1.6,1.2-2.9c0-1.2-0.4-2.2-1.1-2.7
		c-0.8-0.6-1.9-0.8-3.3-0.8h-3.7c-0.2,0-0.4-0.1-0.6-0.3s-0.3-0.4-0.3-0.6v-1.5c0-0.5,0.2-0.8,0.5-1.1l6.4-6.3H8.9
		c-0.3,0-0.5-0.1-0.6-0.3C8.1,90.2,8,90,8,89.8v-2.6c0-0.3,0.1-0.5,0.3-0.6c0.2-0.2,0.4-0.3,0.6-0.3h15.5c0.3,0,0.5,0.1,0.6,0.3
		c0.2,0.2,0.3,0.4,0.3,0.6v2.2c0,0.4-0.2,0.7-0.5,1l-6.2,6.4H19c2.3,0.2,4.1,0.9,5.5,2.1c1.4,1.2,2,2.9,2,5.1c0,1.6-0.4,3-1.3,4.1
		c-0.9,1.2-2,2.1-3.5,2.7c-1.5,0.6-3.2,1-5.1,1C14.6,111.9,12.8,111.5,11.3,110.9z"/>
</g>
<g>
	<path class="st5" d="M-58.3,237.9c0-3.5-2.9-6.4-6.4-6.4c-1.3,0-2.6,0.4-3.6,1.1l0,0l0,0c-0.4,0.3-0.8,0.6-1.2,1l0,0
		c-1.3,1.2-3.5,3.2-5,5c-0.3-0.9-0.8-1.6-1.5-2.3c-6.4-5.6-14-7.9-22.7-7.9c-2.9,0-5.6,0.3-8.2,0.9c-0.1-0.9-0.1-1.5-0.1-1.5h-17
		c0,0-0.8,6.2-0.8,13.9c0,7.7,0.8,13.9,0.8,13.9h17c0,0,0.1-1.6,0.3-3.9c2.5-0.4,5.1,0.2,8.1,2.1c3.8,2.5,8.5,4,13.6,4
		s9.6-1.5,13.2-4.1l0,0l0.1-0.1c1-0.7,2-1.5,2.9-2.4c0.7-0.7,1.7-1.7,3.2-3.1c4.9-4.8,5.5-5.8,5.5-5.8l0,0
		C-59,241.2-58.3,239.6-58.3,237.9L-58.3,237.9z M-62.2,240.4c-0.9,0.9-4.5,4.6-5.5,5.6c-2.6,2.5-3.7,3.7-4.3,4.3l0,0
		c-0.4,0.4-0.8,0.7-1.2,1c-3.3,2.2-7.4,3.6-11.9,3.6s-8.6-1.4-11.9-3.6l0,0c-2.9-1.7-6.2-2.8-9.5-2.5c0.1-2.3,0.2-4.8,0.2-7
		c0-3-0.2-6.7-0.4-9.5c2.5-0.6,5.2-0.9,8-0.9c8.6,0,16.2,2.8,20.8,7.3c0.5,0.6,0.9,1.4,0.9,2.3c0,1.9-1.5,3.4-3.4,3.4
		c-0.1,0-0.1,0-0.2,0l0,0c-1.8-0.1-4.6-0.8-9.2-2.6l-1.1,2.8c5,1.9,8.2,2.7,10.5,2.8l0,0c2.9,0,5.4-1.9,6.2-4.6l0,0
		c1-1.7,4.8-5.1,6.9-7l0,0c0.4-0.4,0.7-0.7,1-0.9c0.4-0.3,0.9-0.4,1.7-0.4c1.9,0,3.4,1.6,3.4,3.5C-61.3,238.8-61.7,239.7-62.2,240.4
		L-62.2,240.4z"/>
	<path class="st5" d="M-79.2,230.1c10.6,0,19.3-8.7,19.3-19.3c0-10.6-8.7-19.3-19.3-19.3s-19.3,8.7-19.3,19.3
		C-98.4,221.5-89.8,230.1-79.2,230.1L-79.2,230.1z M-79.2,194.9c8.8,0,15.9,7.1,15.9,15.9s-7.1,15.9-15.9,15.9s-15.9-7.1-15.9-15.9
		C-95.1,202.1-88,194.9-79.2,194.9L-79.2,194.9z"/>
	<path class="st5" d="M-84.2,210.2c0.4,0.5,1,0.9,1.8,1.3c0.8,0.4,1.8,0.7,3.1,0.9c0.4,0.1,0.7,0.1,1.1,0.2s0.7,0.2,1,0.4
		c0.3,0.2,0.6,0.4,0.8,0.6c0.2,0.2,0.3,0.5,0.3,0.8c0,0.4-0.2,0.7-0.6,0.9c-0.4,0.2-0.8,0.3-1.4,0.3c-0.4,0-0.8,0-1.2-0.1
		c-0.3-0.1-0.6-0.2-0.9-0.3c-0.3-0.1-0.5-0.3-0.8-0.5c-0.3-0.2-0.5-0.5-0.8-0.8h-3.3v4.7h3.2v-0.7c0.1,0.1,0.3,0.2,0.5,0.2
		c0.2,0.1,0.3,0.1,0.5,0.2v1.8h3.2v-1.4c0.7,0,1.3-0.2,1.9-0.4c0.6-0.2,1.1-0.6,1.5-0.9c0.4-0.4,0.8-0.8,1-1.4
		c0.2-0.5,0.4-1.1,0.4-1.7c0-0.3-0.1-0.7-0.2-1.2s-0.4-1-0.8-1.5c-0.4-0.5-1-1-1.8-1.4c-0.8-0.4-1.8-0.8-3.1-1
		c-2.1-0.3-3.1-1-3.1-1.9c0-0.3,0.2-0.7,0.5-1c0.3-0.3,0.8-0.4,1.4-0.4c0.4,0,0.8,0,1.1,0.1c0.3,0.1,0.6,0.2,0.9,0.3
		c0.3,0.1,0.5,0.3,0.8,0.5c0.2,0.2,0.5,0.5,0.7,0.8h3.2v-4.7h-3.1v0.7c-0.4-0.2-0.8-0.4-1.2-0.5v-1.7h-3.2v1.5
		c-0.6,0.1-1.2,0.3-1.7,0.5c-0.5,0.3-1,0.6-1.4,1s-0.7,0.8-0.9,1.4c-0.2,0.5-0.3,1-0.3,1.6c0,0.4,0.1,0.8,0.2,1.3
		C-84.9,209.2-84.6,209.7-84.2,210.2L-84.2,210.2z"/>
</g>
</svg>
